<svg xmlns:xlink="http://www.w3.org/1999/xlink" xmlns="http://www.w3.org/2000/svg" width="865.76" height="682.89" viewBox="0 0 865.76 682.89"><ellipse cx="532.07" cy="610.5" rx="234.23" ry="37.33" transform="translate(-12.81 11.41) rotate(-1.21)" fill="#95BCE0" data-primary="true"></ellipse><ellipse cx="532.07" cy="610.5" rx="234.23" ry="37.33" transform="translate(-12.81 11.41) rotate(-1.21)" fill="#FFFFFF" opacity="0.7"></ellipse><path d="M763.6,430.57S856.4,343,805.41,226.72c-14.16-32.31-37.07-60-65.56-80.82C676,99.31,514.57,7.13,271.67,42.73A181.25,181.25,0,0,0,198.52,70.2c-35.65,23.39-73.44,66.35-57.37,140,5.68,26,4.4,53.15-5,78.08-9.28,24.71-26.86,55-59.58,87.69,0,0-69.72,67.35-1.89,125.64a123.77,123.77,0,0,0,50.09,25.77C209.38,549,551.36,620.88,763.6,430.57Z" fill="#95BCE0" data-primary="true"></path><path d="M763.6,430.57S856.4,343,805.41,226.72c-14.16-32.31-37.07-60-65.56-80.82C676,99.31,514.57,7.13,271.67,42.73A181.25,181.25,0,0,0,198.52,70.2c-35.65,23.39-73.44,66.35-57.37,140,5.68,26,4.4,53.15-5,78.08-9.28,24.71-26.86,55-59.58,87.69,0,0-69.72,67.35-1.89,125.64a123.77,123.77,0,0,0,50.09,25.77C209.38,549,551.36,620.88,763.6,430.57Z" fill="#FFFFFF" opacity="0.7"></path><polygon points="62.24 122.54 130.52 361.54 282.12 331.49 213.15 110.93 62.24 122.54" fill="#95BCE0" data-primary="true"></polygon><line x1="78.97" y1="143.36" x2="200.52" y2="132.44" fill="none" stroke="#FFFFFF" stroke-miterlimit="10"></line><line x1="89.89" y1="171.36" x2="211.44" y2="160.43" fill="none" stroke="#FFFFFF" stroke-miterlimit="10"></line><line x1="97.41" y1="200.04" x2="218.95" y2="189.11" fill="none" stroke="#FFFFFF" stroke-miterlimit="10"></line><line x1="108.33" y1="230.77" x2="229.88" y2="219.84" fill="none" stroke="#FFFFFF" stroke-miterlimit="10"></line><line x1="117.89" y1="269.01" x2="239.44" y2="258.08" fill="none" stroke="#FFFFFF" stroke-miterlimit="10"></line><line x1="128.82" y1="307.25" x2="250.37" y2="296.32" fill="none" stroke="#FFFFFF" stroke-miterlimit="10"></line><rect x="248.32" y="216.36" width="2.05" height="18.58" transform="translate(-55.33 83.31) rotate(-17.1)" fill="#0A3971" data-secondary="true"></rect><polygon points="501.32 431.87 541.65 427.47 540.89 419.85 531.28 403.1 501.32 431.87" fill="#95BCE0" data-primary="true"></polygon><polygon points="501.32 431.87 541.65 427.47 540.89 419.85 531.28 403.1 501.32 431.87" opacity="0.2"></polygon><path d="M431.66,422.31l-5.46,8.2s-14.34,15.7-3.41,41l32.09,105.84L510.19,563l-24.58-83.31S480.15,464,474,459.19l63.51-61.46L530,365.63Z" fill="#0A3971" data-secondary="true"></path><polygon points="394.79 160.09 407.76 172.38 409.47 193.9 389.33 216.77 364.06 177.16 376.6 157.22 394.79 160.09" fill="#F6BBAE"></polygon><path d="M380.4,203.16l-6.14-9.95s7.36-5.61,4.39-21.07C378.65,172.14,390.6,193,380.4,203.16Z" fill="#EFA69A"></path><polygon points="376.89 197.6 364.74 220.19 383.86 223.6 389.33 216.77 376.89 197.6" fill="#0A3971" data-secondary="true"></polygon><polygon points="450.78 447.58 426.2 420.94 461.71 366.32 465.04 338.23 516.34 373.83 523.59 387.02 450.78 447.58" fill="#95BCE0" data-primary="true"></polygon><polygon points="450.78 447.58 426.2 420.94 461.71 366.32 465.04 338.23 516.34 373.83 523.59 387.02 450.78 447.58" opacity="0.2"></polygon><path d="M540.89,419.85l2.76,35.86a43.58,43.58,0,0,0,12.63,27.75c.33.33.68.66,1,1l57,62.32a121.06,121.06,0,0,0,39.24,28.5h0l7.51,12.29,44.39-38.24-36.87-33.46L637.89,481S615.35,453,599,452.36l2-41.66Z" fill="#0A3971" data-secondary="true"></path><path d="M702.08,575.27l4.09,1.37s8.05-17.7-4.24-27.94L661.1,587.56s11.61,12.29,6.15,20.49c0,0-26,6.83-15,13,0,0,49.85,9.56,49.85-19.12Z" fill="#0A3971" data-secondary="true"></path><path d="M493.8,612.15v10.24h27.32s4.1-32.78-2.73-35.51l-6.83-16.39-49.17,10.93s8.2,17.75-28.68,28c0,0-21.17-4.78-23.9,13H463a25.42,25.42,0,0,0,9.32-1.77Z" fill="#0A3971" data-secondary="true"></path><path d="M387.42,240.08l-39.75,37.47L293,256.38,276,296,334.7,319.2s15,6.83,39.6-5.46,37.18-17.44,37.18-17.44S390.29,273,387.42,240.08Z" fill="#95BCE0" data-primary="true"></path><path d="M384.55,308.27s-11-39.52-3.47-62.44l6.34-5.75s3.88,36,24.06,56.22Z" opacity="0.2"></path><polygon points="291.74 258.85 285.53 254.33 270.51 285.74 279.09 289.79 291.74 258.85" fill="#FFFFFF" opacity="0.2"></polygon><path d="M624.23,278.23s1.37-.68,2.73,6.83a21.61,21.61,0,0,0,4.59,15.33,20.45,20.45,0,0,1,2.93,4.95,76.29,76.29,0,0,1,3.93,11.2,2.15,2.15,0,0,0,1.89,1.74c2.59.23,6.65-1.44,1.68-16.83,0,0,10.25-.69,19.81,11.6l5.66,9.06a2.42,2.42,0,0,0,3.14.88h0a2.43,2.43,0,0,0,1.11-3.21l-4.45-9.46,7,9.31a2.42,2.42,0,0,0,3,.71l1.4-.7a2.42,2.42,0,0,0,1-3.33l-7-12.82,7.14,9.18a3,3,0,0,0,4.72-.09h0a3,3,0,0,0,.12-3.24c-3-4.86-11.82-18.86-17.44-22.23l14.88,8.58a3.46,3.46,0,0,0,4.64-1.16h0a3.45,3.45,0,0,0-.83-4.56c-7.92-6-32.76-24.29-45.61-26.35Z" fill="#F6BBAE"></path><path d="M284.63,257.05s-10-3.4-17.53-15.7c0,0-9.56-24.58-18.44-21.16l2.73,10.92s-11.61-2.73-8.88,5.46c0,0-4.09,2.05-2,7.52,0,0-3.41,6.14,3.42,9.56,0,0-3.42,6.82,11.61,13.65l17.07,13Z" fill="#F6BBAE"></path><path d="M248.66,238.62a15.13,15.13,0,0,0,4,3.29c4.88,2.66,9.46-3.93,5.25-7.57a17.26,17.26,0,0,0-6.51-3.23" fill="none" stroke="#EFA69A" stroke-miterlimit="10"></path><path d="M257.61,241.65s4.71,5.85-1.44,9.95c0,0,4.78,6.83-2.73,7.51" fill="none" stroke="#EFA69A" stroke-miterlimit="10"></path><line x1="250.02" y1="249.55" x2="256.17" y2="251.6" fill="none" stroke="#EFA69A" stroke-miterlimit="10"></line><path d="M255.91,183.15c-4-17.76-15.35-30.32-25.34-28.07s-14.84,18.48-10.83,36.23,15.35,30.33,25.34,28.07S259.92,200.91,255.91,183.15ZM244,216.3c-8.35,1.89-18-9.54-21.65-25.51s.25-30.46,8.6-32.34S249,168,252.59,184,252.35,214.42,244,216.3Z" fill="#0A3971" data-secondary="true"></path><path d="M387.42,240.08s2.25,48,43.56,74.34l85.36,59.41,38.24,72.38,68.28-42.34-2.73-15,23.9-8.19-64.87-95.6-78.53-60.78,48.49-6.14,60.09,60.09,30.73-30.73-64.6-66.41a28.75,28.75,0,0,0-20.61-8.71h-147l1.34,18.28Z" fill="#95BCE0" data-primary="true"></path><polygon points="610.57 272.08 620.13 281.64 646.08 258.43 635.84 248.18 610.57 272.08" fill="#FFFFFF" opacity="0.2"></polygon><rect x="335.87" y="125.25" width="41.18" height="74.97" rx="20.59" transform="translate(-18.29 48.26) rotate(-7.55)" fill="#F6BBAE"></rect><path d="M340.84,108.88l-15,17.22a8.37,8.37,0,0,0-1,9.64,26.54,26.54,0,0,0,16.7,12.74s14.34,2.05,16.39-8.19l7.51,19.8h8.87l18.44,15.71s23.22-43-11.61-58.73c0,0-18.43-10.24-39.6,3.42Z" fill="#3D4A5E"></path><ellipse cx="377.18" cy="155.9" rx="8.13" ry="5.12" transform="translate(111.48 465.7) rotate(-71.84)" fill="#F6BBAE"></ellipse><polygon points="415.27 256.38 400.94 216.09 407.76 210.63 401.18 202.58 383.86 223.6 381.81 235.89 415.27 256.38" fill="#95BCE0" data-primary="true"></polygon><polygon points="415.27 256.38 400.94 216.09 407.76 210.63 401.18 202.58 383.86 223.6 381.81 235.89 415.27 256.38" fill="#FFFFFF" opacity="0.2"></polygon><path d="M424.15,166.92l-16.39,43.7-8.87-10.24s10.24-41,10.92-40.29S424.15,166.92,424.15,166.92Z" fill="#0A3971" data-secondary="true"></path><polygon points="449.42 571.86 454.2 586.88 519.75 571.86 514.97 556.83 449.42 571.86" fill="#95BCE0" data-primary="true"></polygon><polygon points="51.65 234.18 81.36 321.93 217.25 298.03 185.84 220.19 51.65 234.18" fill="#0A3971" data-secondary="true"></polygon><path d="M168.51,224.81s41.69,28.3,34.57,72.05" fill="none" stroke="#FFFFFF" stroke-miterlimit="10"></path><path d="M136.74,231.29s58.62,12.43,43.54,69.93" fill="none" stroke="#FFFFFF" stroke-miterlimit="10"></path><path d="M169.39,269.88S155.68,237,122,241.49a23.09,23.09,0,0,0-14.56,7.72c-4,4.65-7.34,12.15-5.87,23.87" fill="none" stroke="#FFFFFF" stroke-miterlimit="10"></path><path d="M172.13,280s1.14,14.46-8.52,23.64" fill="none" stroke="#FFFFFF" stroke-miterlimit="10"></path><path d="M138.22,298.67s22.4-2.48,19-21.5a27.18,27.18,0,0,0-12.16-17.92c-5.23-3.36-12.54-6-20.61-2.78,0,0-14.65,4.43-8.52,23.64,0,0,3.67,10.71,12.74,15.5" fill="none" stroke="#FFFFFF" stroke-miterlimit="10"></path><path d="M96.93,240.54S74.82,274.12,108.6,310" fill="none" stroke="#FFFFFF" stroke-miterlimit="10"></path><path d="M104.72,285.51s5,17.79,23.5,24.85" fill="none" stroke="#FFFFFF" stroke-miterlimit="10"></path><path d="M101.34,314.69A46,46,0,0,1,94,306.31" fill="none" stroke="#FFFFFF" stroke-miterlimit="10"></path><line x1="84.35" y1="242.95" x2="82.74" y2="247.33" fill="none" stroke="#FFFFFF" stroke-miterlimit="10"></line><path d="M134.26,265.19a14.63,14.63,0,0,1,11.45,7.92,9.68,9.68,0,0,1-.42,9.82,10.08,10.08,0,0,1-4.82,3.72A5.39,5.39,0,0,1,138,287c-4-.37-15.87-2.72-11.93-17.79" fill="none" stroke="#FFFFFF" stroke-miterlimit="10"></path><circle cx="135.58" cy="276.35" r="4" fill="none" stroke="#FFFFFF" stroke-miterlimit="10"></circle><polygon points="293.04 256.38 284.93 252.7 269.93 283.7 281.93 288.7 293.04 256.38" fill="#FFFFFF"></polygon><polygon points="288.08 300.44 286.21 305.54 274.61 300.76 294.41 252.28 305.33 257.06 288.08 300.44" fill="#0A3971" data-secondary="true"></polygon><polygon points="639.03 249.31 646.08 258.43 619.93 284.7 611.36 275.08 639.03 249.31" fill="#FFFFFF"></polygon><rect x="612.39" y="231.61" width="17.07" height="51.35" transform="translate(363.8 -363.7) rotate(45)" fill="#0A3971" data-secondary="true"></rect><polygon points="650.13 580.37 659.69 591.29 709.93 545.7 697.93 533.93 650.13 580.37" fill="#95BCE0" data-primary="true"></polygon></svg>